<svg id="SvgjsSvg1245" width="100%" height="100%" xmlns="http://www.w3.org/2000/svg" version="1.1" xlink="http://www.w3.org/1999/xlink" xmlns:svgjs="http://svgjs.com/svgjs" preserveAspectRatio="xMidYMid meet" viewBox="0 -1.3150176414455927e-7 276.4993896484375 146.99998474121094" overflow="visible"><defs id="SvgjsDefs1246"></defs><g id="SvgjsG1247" transform="scale(0.30843474611833827)" opacity="1"><g id="SvgjsG1248" class="PnjV-IeVUN" transform="translate(243.30343865945295, -10.246320640565536) scale(4.098531383157506)" light-content="false" non-strokable="false" fill="#3b3b3b"><path d="M73.102 48.699c-13.398 0-24.398 10.898-24.398 24.398s10.898 24.398 24.398 24.398S97.5 86.597 97.5 73.097c0-13.496-10.898-24.398-24.398-24.398zm0 43.801c-10.699 0-19.398-8.7-19.398-19.398 0-10.699 8.7-19.398 19.398-19.398 10.699 0 19.398 8.7 19.398 19.398 0 10.699-8.7 19.398-19.398 19.398z"></path><path d="M84 67.301c0 5.332-8 5.332-8 0 0-5.336 8-5.336 8 0m-10.898 9c-3.102 0-6 1.2-7.898 3.3-.899.9-.801 2.4.101 3.302.399.398 1 .601 1.602.601s1.199-.2 1.699-.7c1.102-1.1 2.8-1.8 4.5-1.8s3.5.7 4.5 1.8c.898.9 2.3 1 3.3.102.9-.898 1-2.3.102-3.3C79.102 77.5 76.2 76.3 73.102 76.3zm-2.903-9c0 5.332-8 5.332-8 0 0-5.336 8-5.336 8 0M26.898 2.5C13.398 2.5 2.5 13.398 2.5 26.898s10.898 24.398 24.398 24.398 24.398-10.898 24.398-24.398C51.3 13.398 40.3 2.5 26.898 2.5zm0 43.801c-10.699 0-19.398-8.7-19.398-19.398C7.5 16.2 16.2 7.501 26.898 7.501c10.699 0 19.398 8.7 19.398 19.398.004 10.703-8.695 19.402-19.398 19.402z"></path><path d="M37.801 21.102c0 5.332-8 5.332-8 0 0-5.336 8-5.336 8 0m-4.699 10.097c-.602 0-1.2.2-1.7.7-1.1 1.1-2.8 1.8-4.5 1.8-1.8 0-3.5-.7-4.5-1.8-.898-.9-2.3-1-3.3-.102-.898.898-1 2.3-.102 3.3 1.899 2.102 4.801 3.301 7.899 3.301 3.101 0 6-1.199 7.898-3.3.899-.899.801-2.399-.101-3.301-.496-.399-.996-.598-1.594-.598zM24 21.102c0 5.332-8 5.332-8 0 0-5.336 8-5.336 8 0m10.602 49.097c-1-1-2.602-1-3.5 0-1 1-1 2.602 0 3.5l2.7 2.7h-5.4c-5.6 0-10.198-4.602-10.198-10.2v-7.5c0-1.398-1.102-2.5-2.5-2.5s-2.5 1.102-2.5 2.5v7.5c0 8.399 6.8 15.2 15.199 15.2H33.8L31 84.101c-1 1-1 2.602 0 3.5.5.5 1.101.7 1.8.7s1.301-.2 1.801-.7l6.898-6.898c1-1 1-2.602 0-3.5zm30.796-40.398c.5.5 1.102.7 1.8.7.602 0 1.302-.2 1.802-.7 1-1 1-2.602 0-3.5l-2.7-2.7h5.301c5.602 0 10.2 4.602 10.2 10.2v7.5c0 1.398 1.1 2.5 2.5 2.5 1.398 0 2.5-1.102 2.5-2.5v-7.5c0-8.399-6.802-15.2-15.2-15.2h-5.398l2.699-2.698c1-1 1-2.602 0-3.5-1-1-2.602-1-3.5 0L58.504 19.3c-.5.5-.7 1.102-.7 1.8 0 .7.301 1.302.7 1.802z"></path></g><g id="SvgjsG1249" class="text" transform="translate(448.20001220703125, 476.5999983215331) scale(1)" light-content="false" fill="#292929"><path d="M-405 -34.32C-405 -36.76 -405.87 -38.85 -407.61 -40.59C-409.35 -42.33 -411.44 -43.2 -413.88 -43.2L-439.32 -43.2C-441.76 -43.2 -443.85 -42.34 -445.59 -40.62C-447.33 -38.9 -448.2 -36.8 -448.2 -34.32L-448.2 -25.8C-448.2 -23.32 -447.33 -21.22 -445.59 -19.5C-443.85 -17.78 -441.76 -16.92 -439.32 -16.92L-414.42 -16.92L-414.42 -9.36L-438.9 -9.36L-438.9 -12.9L-448.2 -12.9L-448.2 -8.88C-448.2 -6.4 -447.33 -4.3 -445.59 -2.58C-443.85 -0.86 -441.76 0 -439.32 0L-413.88 0C-411.44 0 -409.35 -0.87 -407.61 -2.61C-405.87 -4.35 -405 -6.44 -405 -8.88L-405 -17.4C-405 -19.84 -405.87 -21.93 -407.61 -23.67C-409.35 -25.41 -411.44 -26.28 -413.88 -26.28L-438.9 -26.28L-438.9 -33.84L-414.42 -33.84L-414.42 -30.3L-405 -30.3Z M-352.56 -43.2L-392.46 -43.2L-392.46 0L-352.56 0L-352.56 -9.36L-383.04 -9.36L-383.04 -16.92L-358.5 -16.92L-358.5 -26.28L-383.04 -26.28L-383.04 -33.84L-352.56 -33.84Z M-306.84 -14.4L-331.02 -43.2L-340.62 -43.2L-340.62 0L-331.32 0L-331.32 -28.92L-307.02 0L-297.42 0L-297.42 -43.2L-306.84 -43.2Z M-286.86 -43.2L-286.86 -33.84L-269.94 -33.84L-269.94 0L-260.58 0L-260.58 -33.84L-243.66 -33.84L-243.66 -43.2Z M-233.1 0L-223.74 0L-223.74 -43.2L-233.1 -43.2Z M-189.72 -25.74L-204.36 -43.2L-213.96 -43.2L-213.96 0L-204.66 0L-204.66 -28.92L-189.72 -11.22L-174.84 -28.98L-174.84 0L-165.48 0L-165.48 -43.2L-175.14 -43.2Z M-112.26 -43.2L-152.16 -43.2L-152.16 0L-112.26 0L-112.26 -9.36L-142.74 -9.36L-142.74 -16.92L-118.2 -16.92L-118.2 -26.28L-142.74 -26.28L-142.74 -33.84L-112.26 -33.84Z M-66.54 -14.4L-90.72 -43.2L-100.32 -43.2L-100.32 0L-91.02 0L-91.02 -28.92L-66.72 0L-57.12 0L-57.12 -43.2L-66.54 -43.2Z M-46.56 -43.2L-46.56 -33.84L-29.64 -33.84L-29.64 0L-20.28 0L-20.28 -33.84L-3.36 -33.84L-3.36 -43.2Z M41.46 -43.2C38.98 -43.2 36.88 -42.34 35.16 -40.62C33.44 -38.9 32.58 -36.8 32.58 -34.32L32.58 0L41.88 0L41.88 -13.92L66.36 -13.92L66.36 0L75.78 0L75.78 -34.32C75.78 -36.76 74.91 -38.85 73.17 -40.59C71.43 -42.33 69.32 -43.2 66.84 -43.2ZM41.88 -23.28L41.88 -33.84L66.36 -33.84L66.36 -23.28Z M122.4 -14.4L98.22 -43.2L88.62 -43.2L88.62 0L97.92 0L97.92 -28.92L122.22 0L131.82 0L131.82 -43.2L122.4 -43.2Z M153.54 -43.2C151.06 -43.2 148.96 -42.34 147.24 -40.62C145.52 -38.9 144.66 -36.8 144.66 -34.32L144.66 0L153.96 0L153.96 -13.92L178.44 -13.92L178.44 0L187.86 0L187.86 -34.32C187.86 -36.76 186.99 -38.85 185.25 -40.59C183.51 -42.33 181.4 -43.2 178.92 -43.2ZM153.96 -23.28L153.96 -33.84L178.44 -33.84L178.44 -23.28Z M200.76 0L243.96 0L243.96 -9.36L210.06 -9.36L210.06 -43.26L200.76 -43.26Z M279.36 -43.2L265.86 -26.16L252.3 -43.2L241.2 -43.2L253.32 -26.7L261.18 -16.14L261.18 0L270.54 0L270.54 -16.08L290.58 -43.2Z M297.6 -33.84L326.52 -33.84L297.6 -9.54L297.6 0L340.8 0L340.8 -9.36L311.88 -9.36L340.8 -33.66L340.8 -43.2L297.6 -43.2Z M393.18 -43.2L353.28 -43.2L353.28 0L393.18 0L393.18 -9.36L362.7 -9.36L362.7 -16.92L387.24 -16.92L387.24 -26.28L362.7 -26.28L362.7 -33.84L393.18 -33.84Z M448.26 -34.26C448.26 -36.7 447.38 -38.79 445.62 -40.53C443.86 -42.27 441.76 -43.14 439.32 -43.14L405.06 -43.14L405.06 0L414.36 0L414.36 -13.86C414.4 -13.82 414.46 -13.8 414.54 -13.8C414.54 -14.04 414.48 -14.16 414.36 -14.16L426.72 -14.22L438.66 0L448.26 0L448.26 -3.18L438.9 -14.22L439.32 -14.22C441.76 -14.22 443.86 -15.09 445.62 -16.83C447.38 -18.57 448.26 -20.66 448.26 -23.1ZM414.36 -33.84L438.84 -33.84L438.84 -23.58L414.36 -23.58Z"></path></g></g></svg>